# xmcd
#
# Track frame offsets:
#	150
#	18683
#	41134
#	48224
#	76871
#	91178
#	115739
#	135168
#	153801
#	169770
#	182473
#	204277
#	226921
#	248490
#	259509
#	273504
#
# Disc length: 4026 seconds
#
# Revision: 0
# Processed by: cddbd v1.5.2PL0 Copyright (c) Steve Scherf et al.
# Submitted via: dBpowerAMP V4.0
#
DISCID=b70fb810
DTITLE=The Avett Brothers - Live, Volume 3
DYEAR=2010
DGENRE=Alt Country
TTITLE0=Pretty Girl from Matthews
TTITLE1=Talk on Indolence
TTITLE2=Ballad False Start
TTITLE3=The Ballad of Love and Hate
TTITLE4=Colorshow
TTITLE5=I and Love and You
TTITLE6=Shame
TTITLE7=When I Drink
TTITLE8=Murder in the City
TTITLE9=I Killed Sally's Lover
TTITLE10=Head Full of Doubt/Road Full of Promise
TTITLE11=The Perfect Space
TTITLE12=Paranoia in B(flat) Major
TTITLE13=Distraction #74
TTITLE14=Kick Drum Heart
TTITLE15=Salvation Song
EXTD=
EXTT0=
EXTT1=
EXTT2=
EXTT3=
EXTT4=
EXTT5=
EXTT6=
EXTT7=
EXTT8=
EXTT9=
EXTT10=
EXTT11=
EXTT12=
EXTT13=
EXTT14=
EXTT15=
PLAYORDER=
